<svg width="375" height="63" viewBox="0 0 375 63" fill="none" xmlns="http://www.w3.org/2000/svg">
<path d="M0 63L375 63V0C365.5 7.73006 332.1 23.3834 274.5 24.1564C202.5 25.1227 116.5 14.1074 78.5 28.408C48.1 39.8485 13.5 56.2362 0 63Z" fill="#0BA5FB"/>
<path d="M0 63L375 63V9.27273C365.5 15.865 332.1 29.2144 274.5 29.8737C202.5 30.6977 116.5 21.3037 78.5 33.4994C48.1 43.2561 13.5 57.2317 0 63Z" fill="#1A78AC"/>
<path d="M0 63L375 63V18.5455C365.5 24 332.1 35.0455 274.5 35.5909C202.5 36.2727 116.5 28.5 78.5 38.5909C48.1 46.6636 13.5 58.2273 0 63Z" fill="#00263C"/>
</svg>
