<svg width="375" height="131" viewBox="0 0 375 131" fill="none" xmlns="http://www.w3.org/2000/svg">
<path d="M375 0H0V131C9.5 114.926 42.9 82.3773 100.5 80.7699C172.5 78.7607 258.5 101.666 296.5 71.9294C326.9 48.1405 361.5 14.0644 375 0Z" fill="#0BA5FB"/>
<path d="M375 0H0V93C9.5 81.589 42.9 58.4816 100.5 57.3405C172.5 55.9141 258.5 72.1749 296.5 51.0644C326.9 34.1761 361.5 9.98466 375 0Z" fill="#00263C"/>
<path d="M375 -5H0V77.5584C9.5 67.4286 42.9 46.9156 100.5 45.9026C172.5 44.6364 258.5 59.0714 296.5 40.3312C326.9 25.339 361.5 3.86364 375 -5Z" fill="#5BB9ED"/>
</svg>
