<svg width="110" height="112" viewBox="0 0 110 112" fill="none" xmlns="http://www.w3.org/2000/svg">
<path fill-rule="evenodd" clip-rule="evenodd" d="M9.65501 24.2988C3.56487 33.3124 0 44.2323 0 56C0 86.9279 24.6243 112 55 112C85.3757 112 110 86.9279 110 56C110 25.0721 85.3757 0 55 0C53.4694 0 51.9534 0.0636606 50.4544 0.188523L48.133 9.85361C50.373 9.51094 52.6662 9.33333 55 9.33333C80.3131 9.33333 100.833 30.2267 100.833 56C100.833 81.7733 80.3131 102.667 55 102.667C29.687 102.667 9.16667 81.7733 9.16667 56C9.16667 44.9049 12.9695 34.7142 19.3203 26.7054L9.65501 24.2988Z" fill="#1AB8DB"/>
<path d="M21.7858 60.9333H19.9694V48.8923L16.3268 50.2302V48.5896L21.5026 46.6462H21.7858V60.9333ZM35.9948 54.8689C35.9948 56.9848 35.6335 58.557 34.9108 59.5857C34.1882 60.6143 33.0586 61.1286 31.5221 61.1286C30.0052 61.1286 28.8822 60.6273 28.153 59.6247C27.4238 58.6156 27.0462 57.1117 27.0202 55.113V52.7009C27.0202 50.6111 27.3815 49.0583 28.1042 48.0427C28.8268 47.0271 29.9596 46.5193 31.5026 46.5193C33.0326 46.5193 34.1589 47.0108 34.8815 47.9939C35.6042 48.9704 35.9753 50.4809 35.9948 52.5251V54.8689ZM34.1882 52.3982C34.1882 50.8682 33.9733 49.7549 33.5436 49.0583C33.1139 48.3552 32.4336 48.0036 31.5026 48.0036C30.5781 48.0036 29.9043 48.352 29.4811 49.0486C29.0579 49.7452 28.8398 50.8161 28.8268 52.2615V55.1521C28.8268 56.6885 29.0482 57.8246 29.4909 58.5603C29.9401 59.2895 30.6172 59.654 31.5221 59.654C32.4141 59.654 33.0749 59.309 33.5046 58.6189C33.9408 57.9288 34.1686 56.8415 34.1882 55.3572V52.3982ZM38.4362 59.9861C38.4362 59.6736 38.5273 59.4132 38.7096 59.2048C38.8984 58.9965 39.1784 58.8923 39.5495 58.8923C39.9206 58.8923 40.2005 58.9965 40.3893 59.2048C40.5846 59.4132 40.6823 59.6736 40.6823 59.9861C40.6823 60.2855 40.5846 60.5362 40.3893 60.738C40.2005 60.9398 39.9206 61.0408 39.5495 61.0408C39.1784 61.0408 38.8984 60.9398 38.7096 60.738C38.5273 60.5362 38.4362 60.2855 38.4362 59.9861ZM38.446 51.363C38.446 51.0505 38.5371 50.7901 38.7194 50.5818C38.9082 50.3734 39.1882 50.2693 39.5592 50.2693C39.9303 50.2693 40.2103 50.3734 40.3991 50.5818C40.5944 50.7901 40.6921 51.0505 40.6921 51.363C40.6921 51.6625 40.5944 51.9132 40.3991 52.115C40.2103 52.3168 39.9303 52.4177 39.5592 52.4177C39.1882 52.4177 38.9082 52.3168 38.7194 52.115C38.5371 51.9132 38.446 51.6625 38.446 51.363ZM52.069 54.8689C52.069 56.9848 51.7077 58.557 50.985 59.5857C50.2624 60.6143 49.1328 61.1286 47.5964 61.1286C46.0794 61.1286 44.9564 60.6273 44.2272 59.6247C43.4981 58.6156 43.1204 57.1117 43.0944 55.113V52.7009C43.0944 50.6111 43.4557 49.0583 44.1784 48.0427C44.901 47.0271 46.0339 46.5193 47.5768 46.5193C49.1068 46.5193 50.2331 47.0108 50.9557 47.9939C51.6784 48.9704 52.0495 50.4809 52.069 52.5251V54.8689ZM50.2624 52.3982C50.2624 50.8682 50.0475 49.7549 49.6178 49.0583C49.1882 48.3552 48.5078 48.0036 47.5768 48.0036C46.6523 48.0036 45.9785 48.352 45.5553 49.0486C45.1322 49.7452 44.9141 50.8161 44.901 52.2615V55.1521C44.901 56.6885 45.1224 57.8246 45.5651 58.5603C46.0143 59.2895 46.6914 59.654 47.5964 59.654C48.4883 59.654 49.1491 59.309 49.5788 58.6189C50.015 57.9288 50.2428 56.8415 50.2624 55.3572V52.3982ZM55.2135 53.8044L55.9362 46.7146H63.2214V48.3845H57.4694L57.0397 52.2615C57.7363 51.8513 58.5273 51.6462 59.4128 51.6462C60.7083 51.6462 61.737 52.0759 62.4987 52.9353C63.2604 53.7882 63.6413 54.9438 63.6413 56.4021C63.6413 57.8669 63.2441 59.0225 62.4499 59.8689C61.6621 60.7087 60.5586 61.1286 59.1393 61.1286C57.8828 61.1286 56.8574 60.7803 56.0632 60.0837C55.2689 59.3871 54.8164 58.4236 54.7057 57.1931H56.4147C56.5254 58.0069 56.8151 58.6221 57.2839 59.0388C57.7526 59.449 58.3711 59.654 59.1393 59.654C59.9792 59.654 60.6367 59.3676 61.112 58.7947C61.5938 58.2217 61.8346 57.4307 61.8346 56.4216C61.8346 55.4711 61.5742 54.7094 61.0534 54.1365C60.5391 53.557 59.8522 53.2673 58.9928 53.2673C58.2051 53.2673 57.5866 53.4398 57.1374 53.7849L56.6589 54.1755L55.2135 53.8044ZM65.7409 59.9861C65.7409 59.6736 65.832 59.4132 66.0143 59.2048C66.2031 58.9965 66.4831 58.8923 66.8542 58.8923C67.2253 58.8923 67.5052 58.9965 67.694 59.2048C67.8893 59.4132 67.987 59.6736 67.987 59.9861C67.987 60.2855 67.8893 60.5362 67.694 60.738C67.5052 60.9398 67.2253 61.0408 66.8542 61.0408C66.4831 61.0408 66.2031 60.9398 66.0143 60.738C65.832 60.5362 65.7409 60.2855 65.7409 59.9861ZM65.7507 51.363C65.7507 51.0505 65.8418 50.7901 66.0241 50.5818C66.2129 50.3734 66.4928 50.2693 66.8639 50.2693C67.235 50.2693 67.515 50.3734 67.7038 50.5818C67.8991 50.7901 67.9967 51.0505 67.9967 51.363C67.9967 51.6625 67.8991 51.9132 67.7038 52.115C67.515 52.3168 67.235 52.4177 66.8639 52.4177C66.4928 52.4177 66.2129 52.3168 66.0241 52.115C65.8418 51.9132 65.7507 51.6625 65.7507 51.363ZM79.3737 54.8689C79.3737 56.9848 79.0124 58.557 78.2897 59.5857C77.5671 60.6143 76.4375 61.1286 74.901 61.1286C73.3841 61.1286 72.2611 60.6273 71.5319 59.6247C70.8027 58.6156 70.4251 57.1117 70.3991 55.113V52.7009C70.3991 50.6111 70.7604 49.0583 71.4831 48.0427C72.2057 47.0271 73.3385 46.5193 74.8815 46.5193C76.4115 46.5193 77.5378 47.0108 78.2604 47.9939C78.9831 48.9704 79.3542 50.4809 79.3737 52.5251V54.8689ZM77.5671 52.3982C77.5671 50.8682 77.3522 49.7549 76.9225 49.0583C76.4928 48.3552 75.8125 48.0036 74.8815 48.0036C73.957 48.0036 73.2832 48.352 72.86 49.0486C72.4369 49.7452 72.2188 50.8161 72.2057 52.2615V55.1521C72.2057 56.6885 72.4271 57.8246 72.8698 58.5603C73.319 59.2895 73.9961 59.654 74.901 59.654C75.793 59.654 76.4538 59.309 76.8835 58.6189C77.3197 57.9288 77.5475 56.8415 77.5671 55.3572V52.3982ZM90.6042 54.8689C90.6042 56.9848 90.2428 58.557 89.5202 59.5857C88.7975 60.6143 87.668 61.1286 86.1315 61.1286C84.6146 61.1286 83.4915 60.6273 82.7624 59.6247C82.0332 58.6156 81.6556 57.1117 81.6296 55.113V52.7009C81.6296 50.6111 81.9909 49.0583 82.7135 48.0427C83.4362 47.0271 84.569 46.5193 86.112 46.5193C87.6419 46.5193 88.7682 47.0108 89.4909 47.9939C90.2135 48.9704 90.5846 50.4809 90.6042 52.5251V54.8689ZM88.7975 52.3982C88.7975 50.8682 88.5827 49.7549 88.153 49.0583C87.7233 48.3552 87.043 48.0036 86.112 48.0036C85.1875 48.0036 84.5137 48.352 84.0905 49.0486C83.6673 49.7452 83.4492 50.8161 83.4362 52.2615V55.1521C83.4362 56.6885 83.6576 57.8246 84.1003 58.5603C84.5495 59.2895 85.2266 59.654 86.1315 59.654C87.0234 59.654 87.6842 59.309 88.1139 58.6189C88.5501 57.9288 88.778 56.8415 88.7975 55.3572V52.3982Z" fill="white"/>
</svg>
